# xmcd
#
# Track frame offsets: 
#        150
#        11157
#        26970
#        41065
#        55570
#        68457
#        81907
#        94255
#        109452
#        123390
#        137697
#        149697
#        162830
#        176252
#        190970
#        204815
#        218542
#        232067
#        244872
#        259212
#        273455
#        286555
#
# Disc length: 3998 seconds
#
# Revision: 0
# Processed by: cddbd v1.5.2PL0 Copyright (c) Steve Scherf et al.
# Submitted via: ExactAudioCopy v0.99pb4
#
DISCID=400f9c16
DTITLE=Memphis Minnie and Kansas Joe - 1929-1934 Recordings In Chronolog
DTITLE=ical Order Vol. 3 (1931-1932)
DYEAR=1991
DGENRE=Blues
TTITLE0=I Don't Want That Junk Outa You
TTITLE1=Crazy Cryin' Blues
TTITLE2=Tricks Ain't Walking No More
TTITLE3=Don't Bother It
TTITLE4=Today Today Blues
TTITLE5=Lay My Money Down (If You Run Around)
TTITLE6=Hard Down Lie
TTITLE7=Somebody's Got To Help You
TTITLE8=Pickin' The Blues
TTITLE9=Let's Go To Town
TTITLE10=Soo Cow Soo
TTITLE11=After While Blues
TTITLE12=Fishin' Blues
TTITLE13=Jailhouse Trouble Blues
TTITLE14=Outdoor Blues
TTITLE15=Where Is My Good Man
TTITLE16=You Stole My Cake
TTITLE17=Kind Treatment Blues
TTITLE18=You Know You Done Me Wrong
TTITLE19=Joliet Bound
TTITLE20=Stranger's Blues
TTITLE21=Socket Blues
EXTD=
EXTT0=
EXTT1=
EXTT2=
EXTT3=
EXTT4=
EXTT5=
EXTT6=
EXTT7=
EXTT8=
EXTT9=
EXTT10=
EXTT11=
EXTT12=
EXTT13=
EXTT14=
EXTT15=
EXTT16=
EXTT17=
EXTT18=
EXTT19=
EXTT20=
EXTT21=
PLAYORDER=
